# xmcd
#
# Track frame offsets: 
#        150
#        16235
#        30364
#        48319
#        64806
#        82584
#        102301
#        131207
#        151353
#        163479
#        176002
#        192195
#        205342
#        209597
#        224292
#        239350
#        243732
#
# Disc length: 3586 seconds
#
# Revision: 4
# Processed by: cddbd v1.5.2PL0 Copyright (c) Steve Scherf et al.
# Submitted via: ExactAudioCopyFreeDBPlugin 1.0
#
DISCID=f20e0011
DTITLE=Nina Simone - A Single Woman [Reissue]
DYEAR=1993
DGENRE=Ballad
TTITLE0=A Single Woman
TTITLE1=Lonsome Cities
TTITLE2=If I Should Lose You
TTITLE3=The Folks Who Live On The Hill
TTITLE4=Love's Been Good To Me
TTITLE5=Papa, Can You Hear Me?
TTITLE6=Il N'Y A Pas D'Amour Heureux
TTITLE7=Just Say I Love Him
TTITLE8=The More I See You
TTITLE9=Marry Me
TTITLE10=The Long And Winding Road
TTITLE11=I'm Gonna Sit Right Down And Write Myself A Letter
TTITLE12=Baseball Boogie
TTITLE13=No Woman, No Cry
TTITLE14=Do I Move You?
TTITLE15=The Times They Are A-Changin'
TTITLE16=Sign O' The Times
EXTD=
EXTT0=
EXTT1=
EXTT2=
EXTT3=
EXTT4=
EXTT5=
EXTT6=
EXTT7=
EXTT8=
EXTT9=
EXTT10=
EXTT11=
EXTT12=
EXTT13=
EXTT14=
EXTT15=
EXTT16=
PLAYORDER=
